<mxfile host="Electron" modified="2023-10-05T14:29:22.407Z" agent="Mozilla/5.0 (Windows NT 10.0; Win64; x64) AppleWebKit/537.36 (KHTML, like Gecko) draw.io/21.8.2 Chrome/114.0.5735.289 Electron/25.8.1 Safari/537.36" etag="6dWjJDJFdxlfQXRzaugJ" version="21.8.2" type="device">
  <diagram name="Page-1" id="TJPzLqHHbRjkNp97mZ9G">
    <mxGraphModel dx="880" dy="532" grid="1" gridSize="13" guides="1" tooltips="1" connect="1" arrows="1" fold="1" page="1" pageScale="1" pageWidth="1169" pageHeight="1654" math="0" shadow="0">
      <root>
        <mxCell id="0" />
        <mxCell id="1" parent="0" />
        <mxCell id="ykypRSLt11gy8VuxgGZR-1" value="Scenario of Buying a Car" style="text;html=1;strokeColor=none;fillColor=none;align=center;verticalAlign=middle;whiteSpace=wrap;rounded=0;" parent="1" vertex="1">
          <mxGeometry x="524" y="380" width="150" height="30" as="geometry" />
        </mxCell>
        <mxCell id="ykypRSLt11gy8VuxgGZR-99" style="edgeStyle=orthogonalEdgeStyle;rounded=0;orthogonalLoop=1;jettySize=auto;html=1;entryX=0.5;entryY=0;entryDx=0;entryDy=0;" parent="1" source="ykypRSLt11gy8VuxgGZR-11" target="ykypRSLt11gy8VuxgGZR-51" edge="1">
          <mxGeometry relative="1" as="geometry" />
        </mxCell>
        <mxCell id="ykypRSLt11gy8VuxgGZR-100" style="edgeStyle=orthogonalEdgeStyle;rounded=0;orthogonalLoop=1;jettySize=auto;html=1;entryX=0.5;entryY=0;entryDx=0;entryDy=0;" parent="1" source="ykypRSLt11gy8VuxgGZR-11" target="ykypRSLt11gy8VuxgGZR-57" edge="1">
          <mxGeometry relative="1" as="geometry" />
        </mxCell>
        <mxCell id="ykypRSLt11gy8VuxgGZR-11" value="" style="rounded=0;whiteSpace=wrap;html=1;" parent="1" vertex="1">
          <mxGeometry x="195" y="585" width="110" height="30" as="geometry" />
        </mxCell>
        <mxCell id="ykypRSLt11gy8VuxgGZR-16" value="" style="rounded=0;whiteSpace=wrap;html=1;" parent="1" vertex="1">
          <mxGeometry x="335" y="587.5" width="110" height="25" as="geometry" />
        </mxCell>
        <mxCell id="ykypRSLt11gy8VuxgGZR-17" value="" style="rounded=0;whiteSpace=wrap;html=1;" parent="1" vertex="1">
          <mxGeometry x="465" y="585" width="110" height="25" as="geometry" />
        </mxCell>
        <mxCell id="ykypRSLt11gy8VuxgGZR-18" value="" style="rounded=0;whiteSpace=wrap;html=1;" parent="1" vertex="1">
          <mxGeometry x="599" y="585" width="110" height="25" as="geometry" />
        </mxCell>
        <mxCell id="ykypRSLt11gy8VuxgGZR-19" value="" style="rounded=0;whiteSpace=wrap;html=1;" parent="1" vertex="1">
          <mxGeometry x="730" y="585" width="110" height="25" as="geometry" />
        </mxCell>
        <mxCell id="ykypRSLt11gy8VuxgGZR-113" style="edgeStyle=orthogonalEdgeStyle;rounded=0;orthogonalLoop=1;jettySize=auto;html=1;entryX=0.5;entryY=0;entryDx=0;entryDy=0;" parent="1" source="ykypRSLt11gy8VuxgGZR-20" target="ykypRSLt11gy8VuxgGZR-60" edge="1">
          <mxGeometry relative="1" as="geometry" />
        </mxCell>
        <mxCell id="ykypRSLt11gy8VuxgGZR-20" value="" style="rounded=0;whiteSpace=wrap;html=1;" parent="1" vertex="1">
          <mxGeometry x="865" y="587.5" width="110" height="25" as="geometry" />
        </mxCell>
        <mxCell id="ykypRSLt11gy8VuxgGZR-21" value="" style="group" parent="1" vertex="1" connectable="0">
          <mxGeometry x="335" y="510" width="110" height="30" as="geometry" />
        </mxCell>
        <mxCell id="ykypRSLt11gy8VuxgGZR-3" value="" style="rounded=0;whiteSpace=wrap;html=1;" parent="ykypRSLt11gy8VuxgGZR-21" vertex="1">
          <mxGeometry width="110" height="25" as="geometry" />
        </mxCell>
        <mxCell id="ykypRSLt11gy8VuxgGZR-7" value="High" style="text;html=1;strokeColor=none;fillColor=none;align=center;verticalAlign=middle;whiteSpace=wrap;rounded=0;" parent="ykypRSLt11gy8VuxgGZR-21" vertex="1">
          <mxGeometry x="25" width="60" height="30" as="geometry" />
        </mxCell>
        <mxCell id="ykypRSLt11gy8VuxgGZR-22" value="" style="group" parent="1" vertex="1" connectable="0">
          <mxGeometry x="544" y="442.5" width="110" height="30" as="geometry" />
        </mxCell>
        <mxCell id="ykypRSLt11gy8VuxgGZR-13" value="" style="rounded=0;whiteSpace=wrap;html=1;" parent="ykypRSLt11gy8VuxgGZR-22" vertex="1">
          <mxGeometry y="2.5" width="110" height="25" as="geometry" />
        </mxCell>
        <mxCell id="ykypRSLt11gy8VuxgGZR-6" value="Price" style="text;html=1;strokeColor=none;fillColor=none;align=center;verticalAlign=middle;whiteSpace=wrap;rounded=0;" parent="ykypRSLt11gy8VuxgGZR-22" vertex="1">
          <mxGeometry x="25" width="60" height="30" as="geometry" />
        </mxCell>
        <mxCell id="ykypRSLt11gy8VuxgGZR-23" value="" style="group" parent="1" vertex="1" connectable="0">
          <mxGeometry x="544" y="510" width="110" height="30" as="geometry" />
        </mxCell>
        <mxCell id="ykypRSLt11gy8VuxgGZR-14" value="" style="rounded=0;whiteSpace=wrap;html=1;" parent="ykypRSLt11gy8VuxgGZR-23" vertex="1">
          <mxGeometry width="110" height="25" as="geometry" />
        </mxCell>
        <mxCell id="ykypRSLt11gy8VuxgGZR-8" value="Medium" style="text;html=1;strokeColor=none;fillColor=none;align=center;verticalAlign=middle;whiteSpace=wrap;rounded=0;" parent="ykypRSLt11gy8VuxgGZR-23" vertex="1">
          <mxGeometry x="25" width="60" height="30" as="geometry" />
        </mxCell>
        <mxCell id="ykypRSLt11gy8VuxgGZR-25" value="" style="group" parent="1" vertex="1" connectable="0">
          <mxGeometry x="755" y="510" width="110" height="30" as="geometry" />
        </mxCell>
        <mxCell id="ykypRSLt11gy8VuxgGZR-15" value="" style="rounded=0;whiteSpace=wrap;html=1;" parent="ykypRSLt11gy8VuxgGZR-25" vertex="1">
          <mxGeometry y="2.5" width="110" height="25" as="geometry" />
        </mxCell>
        <mxCell id="ykypRSLt11gy8VuxgGZR-9" value="Low" style="text;html=1;strokeColor=none;fillColor=none;align=center;verticalAlign=middle;whiteSpace=wrap;rounded=0;" parent="ykypRSLt11gy8VuxgGZR-25" vertex="1">
          <mxGeometry x="25" width="60" height="30" as="geometry" />
        </mxCell>
        <mxCell id="ykypRSLt11gy8VuxgGZR-108" style="edgeStyle=orthogonalEdgeStyle;rounded=0;orthogonalLoop=1;jettySize=auto;html=1;entryX=0.5;entryY=0;entryDx=0;entryDy=0;" parent="1" source="ykypRSLt11gy8VuxgGZR-27" target="ykypRSLt11gy8VuxgGZR-55" edge="1">
          <mxGeometry relative="1" as="geometry" />
        </mxCell>
        <mxCell id="ykypRSLt11gy8VuxgGZR-109" style="edgeStyle=orthogonalEdgeStyle;rounded=0;orthogonalLoop=1;jettySize=auto;html=1;entryX=0.5;entryY=0;entryDx=0;entryDy=0;" parent="1" source="ykypRSLt11gy8VuxgGZR-27" target="ykypRSLt11gy8VuxgGZR-61" edge="1">
          <mxGeometry relative="1" as="geometry" />
        </mxCell>
        <mxCell id="ykypRSLt11gy8VuxgGZR-27" value="Comfort" style="text;html=1;strokeColor=none;fillColor=none;align=center;verticalAlign=middle;whiteSpace=wrap;rounded=0;" parent="1" vertex="1">
          <mxGeometry x="755" y="585" width="60" height="30" as="geometry" />
        </mxCell>
        <mxCell id="ykypRSLt11gy8VuxgGZR-28" value="Comfort" style="text;html=1;strokeColor=none;fillColor=none;align=center;verticalAlign=middle;whiteSpace=wrap;rounded=0;" parent="1" vertex="1">
          <mxGeometry x="220" y="585" width="60" height="30" as="geometry" />
        </mxCell>
        <mxCell id="ykypRSLt11gy8VuxgGZR-103" style="edgeStyle=orthogonalEdgeStyle;rounded=0;orthogonalLoop=1;jettySize=auto;html=1;entryX=0.5;entryY=0;entryDx=0;entryDy=0;" parent="1" source="ykypRSLt11gy8VuxgGZR-29" target="ykypRSLt11gy8VuxgGZR-49" edge="1">
          <mxGeometry relative="1" as="geometry" />
        </mxCell>
        <mxCell id="ykypRSLt11gy8VuxgGZR-104" style="edgeStyle=orthogonalEdgeStyle;rounded=0;orthogonalLoop=1;jettySize=auto;html=1;entryX=0.5;entryY=0;entryDx=0;entryDy=0;" parent="1" source="ykypRSLt11gy8VuxgGZR-29" target="ykypRSLt11gy8VuxgGZR-58" edge="1">
          <mxGeometry relative="1" as="geometry" />
        </mxCell>
        <mxCell id="ykypRSLt11gy8VuxgGZR-29" value="Comfort" style="text;html=1;strokeColor=none;fillColor=none;align=center;verticalAlign=middle;whiteSpace=wrap;rounded=0;" parent="1" vertex="1">
          <mxGeometry x="490" y="585" width="60" height="30" as="geometry" />
        </mxCell>
        <mxCell id="ykypRSLt11gy8VuxgGZR-114" style="edgeStyle=orthogonalEdgeStyle;rounded=0;orthogonalLoop=1;jettySize=auto;html=1;" parent="1" source="ykypRSLt11gy8VuxgGZR-30" target="ykypRSLt11gy8VuxgGZR-54" edge="1">
          <mxGeometry relative="1" as="geometry" />
        </mxCell>
        <mxCell id="ykypRSLt11gy8VuxgGZR-30" value="Tech" style="text;html=1;strokeColor=none;fillColor=none;align=center;verticalAlign=middle;whiteSpace=wrap;rounded=0;" parent="1" vertex="1">
          <mxGeometry x="890" y="585" width="60" height="30" as="geometry" />
        </mxCell>
        <mxCell id="ykypRSLt11gy8VuxgGZR-101" style="edgeStyle=orthogonalEdgeStyle;rounded=0;orthogonalLoop=1;jettySize=auto;html=1;" parent="1" source="ykypRSLt11gy8VuxgGZR-31" target="ykypRSLt11gy8VuxgGZR-53" edge="1">
          <mxGeometry relative="1" as="geometry" />
        </mxCell>
        <mxCell id="ykypRSLt11gy8VuxgGZR-102" style="edgeStyle=orthogonalEdgeStyle;rounded=0;orthogonalLoop=1;jettySize=auto;html=1;entryX=0.5;entryY=0;entryDx=0;entryDy=0;" parent="1" source="ykypRSLt11gy8VuxgGZR-31" target="ykypRSLt11gy8VuxgGZR-50" edge="1">
          <mxGeometry relative="1" as="geometry" />
        </mxCell>
        <mxCell id="ykypRSLt11gy8VuxgGZR-31" value="Tech" style="text;html=1;strokeColor=none;fillColor=none;align=center;verticalAlign=middle;whiteSpace=wrap;rounded=0;" parent="1" vertex="1">
          <mxGeometry x="360" y="585" width="60" height="30" as="geometry" />
        </mxCell>
        <mxCell id="ykypRSLt11gy8VuxgGZR-105" style="edgeStyle=orthogonalEdgeStyle;rounded=0;orthogonalLoop=1;jettySize=auto;html=1;entryX=0.5;entryY=0;entryDx=0;entryDy=0;" parent="1" source="ykypRSLt11gy8VuxgGZR-32" target="ykypRSLt11gy8VuxgGZR-52" edge="1">
          <mxGeometry relative="1" as="geometry" />
        </mxCell>
        <mxCell id="ykypRSLt11gy8VuxgGZR-107" style="edgeStyle=orthogonalEdgeStyle;rounded=0;orthogonalLoop=1;jettySize=auto;html=1;entryX=0.5;entryY=0;entryDx=0;entryDy=0;" parent="1" source="ykypRSLt11gy8VuxgGZR-32" target="ykypRSLt11gy8VuxgGZR-59" edge="1">
          <mxGeometry relative="1" as="geometry" />
        </mxCell>
        <mxCell id="ykypRSLt11gy8VuxgGZR-32" value="Tech" style="text;html=1;strokeColor=none;fillColor=none;align=center;verticalAlign=middle;whiteSpace=wrap;rounded=0;" parent="1" vertex="1">
          <mxGeometry x="614" y="582.5" width="60" height="30" as="geometry" />
        </mxCell>
        <mxCell id="ykypRSLt11gy8VuxgGZR-34" value="" style="rounded=0;whiteSpace=wrap;html=1;" parent="1" vertex="1">
          <mxGeometry x="135" y="670" width="60" height="20" as="geometry" />
        </mxCell>
        <mxCell id="ykypRSLt11gy8VuxgGZR-35" value="" style="rounded=0;whiteSpace=wrap;html=1;" parent="1" vertex="1">
          <mxGeometry x="220" y="670" width="60" height="20" as="geometry" />
        </mxCell>
        <mxCell id="ykypRSLt11gy8VuxgGZR-36" value="" style="rounded=0;whiteSpace=wrap;html=1;" parent="1" vertex="1">
          <mxGeometry x="300" y="670" width="60" height="20" as="geometry" />
        </mxCell>
        <mxCell id="ykypRSLt11gy8VuxgGZR-37" value="" style="rounded=0;whiteSpace=wrap;html=1;" parent="1" vertex="1">
          <mxGeometry x="377" y="670" width="60" height="20" as="geometry" />
        </mxCell>
        <mxCell id="ykypRSLt11gy8VuxgGZR-38" value="" style="rounded=0;whiteSpace=wrap;html=1;" parent="1" vertex="1">
          <mxGeometry x="988" y="670" width="60" height="20" as="geometry" />
        </mxCell>
        <mxCell id="ykypRSLt11gy8VuxgGZR-39" value="" style="rounded=0;whiteSpace=wrap;html=1;" parent="1" vertex="1">
          <mxGeometry x="897" y="670" width="60" height="20" as="geometry" />
        </mxCell>
        <mxCell id="ykypRSLt11gy8VuxgGZR-40" value="" style="rounded=0;whiteSpace=wrap;html=1;" parent="1" vertex="1">
          <mxGeometry x="815" y="670" width="60" height="20" as="geometry" />
        </mxCell>
        <mxCell id="ykypRSLt11gy8VuxgGZR-41" value="" style="rounded=0;whiteSpace=wrap;html=1;" parent="1" vertex="1">
          <mxGeometry x="741" y="670" width="60" height="20" as="geometry" />
        </mxCell>
        <mxCell id="ykypRSLt11gy8VuxgGZR-42" value="" style="rounded=0;whiteSpace=wrap;html=1;" parent="1" vertex="1">
          <mxGeometry x="455" y="670" width="60" height="20" as="geometry" />
        </mxCell>
        <mxCell id="ykypRSLt11gy8VuxgGZR-43" value="" style="rounded=0;whiteSpace=wrap;html=1;" parent="1" vertex="1">
          <mxGeometry x="670" y="670" width="60" height="20" as="geometry" />
        </mxCell>
        <mxCell id="ykypRSLt11gy8VuxgGZR-44" value="" style="rounded=0;whiteSpace=wrap;html=1;" parent="1" vertex="1">
          <mxGeometry x="524.5" y="670" width="60" height="20" as="geometry" />
        </mxCell>
        <mxCell id="ykypRSLt11gy8VuxgGZR-45" value="" style="rounded=0;whiteSpace=wrap;html=1;" parent="1" vertex="1">
          <mxGeometry x="599" y="670" width="60" height="20" as="geometry" />
        </mxCell>
        <mxCell id="ykypRSLt11gy8VuxgGZR-121" style="edgeStyle=orthogonalEdgeStyle;rounded=0;orthogonalLoop=1;jettySize=auto;html=1;" parent="1" source="ykypRSLt11gy8VuxgGZR-49" target="ykypRSLt11gy8VuxgGZR-66" edge="1">
          <mxGeometry relative="1" as="geometry" />
        </mxCell>
        <mxCell id="ykypRSLt11gy8VuxgGZR-49" value="Basic" style="text;html=1;strokeColor=none;fillColor=none;align=center;verticalAlign=middle;whiteSpace=wrap;rounded=0;" parent="1" vertex="1">
          <mxGeometry x="455" y="665" width="60" height="30" as="geometry" />
        </mxCell>
        <mxCell id="ykypRSLt11gy8VuxgGZR-118" value="" style="edgeStyle=orthogonalEdgeStyle;rounded=0;orthogonalLoop=1;jettySize=auto;html=1;" parent="1" source="ykypRSLt11gy8VuxgGZR-50" target="ykypRSLt11gy8VuxgGZR-65" edge="1">
          <mxGeometry relative="1" as="geometry" />
        </mxCell>
        <mxCell id="ykypRSLt11gy8VuxgGZR-50" value="High" style="text;html=1;strokeColor=none;fillColor=none;align=center;verticalAlign=middle;whiteSpace=wrap;rounded=0;" parent="1" vertex="1">
          <mxGeometry x="377" y="665" width="60" height="30" as="geometry" />
        </mxCell>
        <mxCell id="ykypRSLt11gy8VuxgGZR-115" value="" style="edgeStyle=orthogonalEdgeStyle;rounded=0;orthogonalLoop=1;jettySize=auto;html=1;" parent="1" source="ykypRSLt11gy8VuxgGZR-51" target="ykypRSLt11gy8VuxgGZR-62" edge="1">
          <mxGeometry relative="1" as="geometry" />
        </mxCell>
        <mxCell id="ykypRSLt11gy8VuxgGZR-51" value="Basic" style="text;html=1;strokeColor=none;fillColor=none;align=center;verticalAlign=middle;whiteSpace=wrap;rounded=0;" parent="1" vertex="1">
          <mxGeometry x="135" y="665" width="60" height="30" as="geometry" />
        </mxCell>
        <mxCell id="ykypRSLt11gy8VuxgGZR-126" style="edgeStyle=orthogonalEdgeStyle;rounded=0;orthogonalLoop=1;jettySize=auto;html=1;entryX=0.5;entryY=0;entryDx=0;entryDy=0;" parent="1" source="ykypRSLt11gy8VuxgGZR-52" target="ykypRSLt11gy8VuxgGZR-68" edge="1">
          <mxGeometry relative="1" as="geometry" />
        </mxCell>
        <mxCell id="ykypRSLt11gy8VuxgGZR-52" value="Basic" style="text;html=1;strokeColor=none;fillColor=none;align=center;verticalAlign=middle;whiteSpace=wrap;rounded=0;" parent="1" vertex="1">
          <mxGeometry x="599" y="665" width="60" height="30" as="geometry" />
        </mxCell>
        <mxCell id="ykypRSLt11gy8VuxgGZR-117" value="" style="edgeStyle=orthogonalEdgeStyle;rounded=0;orthogonalLoop=1;jettySize=auto;html=1;" parent="1" source="ykypRSLt11gy8VuxgGZR-53" target="ykypRSLt11gy8VuxgGZR-64" edge="1">
          <mxGeometry relative="1" as="geometry" />
        </mxCell>
        <mxCell id="ykypRSLt11gy8VuxgGZR-53" value="Basic" style="text;html=1;strokeColor=none;fillColor=none;align=center;verticalAlign=middle;whiteSpace=wrap;rounded=0;" parent="1" vertex="1">
          <mxGeometry x="300" y="665" width="60" height="30" as="geometry" />
        </mxCell>
        <mxCell id="ykypRSLt11gy8VuxgGZR-129" value="" style="edgeStyle=orthogonalEdgeStyle;rounded=0;orthogonalLoop=1;jettySize=auto;html=1;" parent="1" source="ykypRSLt11gy8VuxgGZR-54" target="ykypRSLt11gy8VuxgGZR-72" edge="1">
          <mxGeometry relative="1" as="geometry" />
        </mxCell>
        <mxCell id="ykypRSLt11gy8VuxgGZR-54" value="Basic" style="text;html=1;strokeColor=none;fillColor=none;align=center;verticalAlign=middle;whiteSpace=wrap;rounded=0;" parent="1" vertex="1">
          <mxGeometry x="897" y="665" width="60" height="30" as="geometry" />
        </mxCell>
        <mxCell id="ykypRSLt11gy8VuxgGZR-127" value="" style="edgeStyle=orthogonalEdgeStyle;rounded=0;orthogonalLoop=1;jettySize=auto;html=1;" parent="1" source="ykypRSLt11gy8VuxgGZR-55" target="ykypRSLt11gy8VuxgGZR-70" edge="1">
          <mxGeometry relative="1" as="geometry" />
        </mxCell>
        <mxCell id="ykypRSLt11gy8VuxgGZR-55" value="Basic" style="text;html=1;strokeColor=none;fillColor=none;align=center;verticalAlign=middle;whiteSpace=wrap;rounded=0;" parent="1" vertex="1">
          <mxGeometry x="741" y="665" width="60" height="30" as="geometry" />
        </mxCell>
        <mxCell id="ykypRSLt11gy8VuxgGZR-116" value="" style="edgeStyle=orthogonalEdgeStyle;rounded=0;orthogonalLoop=1;jettySize=auto;html=1;" parent="1" source="ykypRSLt11gy8VuxgGZR-57" target="ykypRSLt11gy8VuxgGZR-63" edge="1">
          <mxGeometry relative="1" as="geometry" />
        </mxCell>
        <mxCell id="ykypRSLt11gy8VuxgGZR-57" value="High" style="text;html=1;strokeColor=none;fillColor=none;align=center;verticalAlign=middle;whiteSpace=wrap;rounded=0;" parent="1" vertex="1">
          <mxGeometry x="221" y="665" width="60" height="30" as="geometry" />
        </mxCell>
        <mxCell id="bcfipqwa0QsSrj-ufeM5-3" style="edgeStyle=orthogonalEdgeStyle;rounded=0;orthogonalLoop=1;jettySize=auto;html=1;exitX=0.5;exitY=1;exitDx=0;exitDy=0;entryX=0.5;entryY=0;entryDx=0;entryDy=0;" parent="1" source="ykypRSLt11gy8VuxgGZR-58" target="ykypRSLt11gy8VuxgGZR-67" edge="1">
          <mxGeometry relative="1" as="geometry" />
        </mxCell>
        <mxCell id="ykypRSLt11gy8VuxgGZR-58" value="High" style="text;html=1;strokeColor=none;fillColor=none;align=center;verticalAlign=middle;whiteSpace=wrap;rounded=0;" parent="1" vertex="1">
          <mxGeometry x="525" y="665" width="60" height="30" as="geometry" />
        </mxCell>
        <mxCell id="ykypRSLt11gy8VuxgGZR-124" value="" style="edgeStyle=orthogonalEdgeStyle;rounded=0;orthogonalLoop=1;jettySize=auto;html=1;" parent="1" source="ykypRSLt11gy8VuxgGZR-59" target="ykypRSLt11gy8VuxgGZR-69" edge="1">
          <mxGeometry relative="1" as="geometry" />
        </mxCell>
        <mxCell id="ykypRSLt11gy8VuxgGZR-59" value="High" style="text;html=1;strokeColor=none;fillColor=none;align=center;verticalAlign=middle;whiteSpace=wrap;rounded=0;" parent="1" vertex="1">
          <mxGeometry x="668" y="665" width="60" height="30" as="geometry" />
        </mxCell>
        <mxCell id="bcfipqwa0QsSrj-ufeM5-2" style="edgeStyle=orthogonalEdgeStyle;rounded=0;orthogonalLoop=1;jettySize=auto;html=1;exitX=0.5;exitY=1;exitDx=0;exitDy=0;entryX=0.5;entryY=0;entryDx=0;entryDy=0;" parent="1" source="ykypRSLt11gy8VuxgGZR-60" target="ykypRSLt11gy8VuxgGZR-73" edge="1">
          <mxGeometry relative="1" as="geometry" />
        </mxCell>
        <mxCell id="ykypRSLt11gy8VuxgGZR-60" value="High" style="text;html=1;strokeColor=none;fillColor=none;align=center;verticalAlign=middle;whiteSpace=wrap;rounded=0;" parent="1" vertex="1">
          <mxGeometry x="988" y="665" width="60" height="30" as="geometry" />
        </mxCell>
        <mxCell id="ykypRSLt11gy8VuxgGZR-128" value="" style="edgeStyle=orthogonalEdgeStyle;rounded=0;orthogonalLoop=1;jettySize=auto;html=1;" parent="1" source="ykypRSLt11gy8VuxgGZR-61" target="ykypRSLt11gy8VuxgGZR-71" edge="1">
          <mxGeometry relative="1" as="geometry" />
        </mxCell>
        <mxCell id="ykypRSLt11gy8VuxgGZR-61" value="High" style="text;html=1;strokeColor=none;fillColor=none;align=center;verticalAlign=middle;whiteSpace=wrap;rounded=0;" parent="1" vertex="1">
          <mxGeometry x="815" y="665" width="60" height="30" as="geometry" />
        </mxCell>
        <mxCell id="ykypRSLt11gy8VuxgGZR-62" value="Mercedes Benz C Class" style="text;html=1;strokeColor=none;fillColor=none;align=center;verticalAlign=middle;whiteSpace=wrap;rounded=0;" parent="1" vertex="1">
          <mxGeometry x="135" y="715" width="60" height="30" as="geometry" />
        </mxCell>
        <mxCell id="ykypRSLt11gy8VuxgGZR-63" value="BMW 7 Series" style="text;html=1;strokeColor=none;fillColor=none;align=center;verticalAlign=middle;whiteSpace=wrap;rounded=0;" parent="1" vertex="1">
          <mxGeometry x="221" y="715" width="60" height="30" as="geometry" />
        </mxCell>
        <mxCell id="ykypRSLt11gy8VuxgGZR-64" value="Audi A6" style="text;html=1;strokeColor=none;fillColor=none;align=center;verticalAlign=middle;whiteSpace=wrap;rounded=0;" parent="1" vertex="1">
          <mxGeometry x="300" y="715" width="60" height="30" as="geometry" />
        </mxCell>
        <mxCell id="ykypRSLt11gy8VuxgGZR-65" value="Tesla Model S" style="text;html=1;strokeColor=none;fillColor=none;align=center;verticalAlign=middle;whiteSpace=wrap;rounded=0;" parent="1" vertex="1">
          <mxGeometry x="377" y="715" width="60" height="30" as="geometry" />
        </mxCell>
        <mxCell id="ykypRSLt11gy8VuxgGZR-66" value="Ford Focus" style="text;html=1;strokeColor=none;fillColor=none;align=center;verticalAlign=middle;whiteSpace=wrap;rounded=0;" parent="1" vertex="1">
          <mxGeometry x="455" y="715" width="60" height="30" as="geometry" />
        </mxCell>
        <mxCell id="ykypRSLt11gy8VuxgGZR-67" value="Honda Accord" style="text;html=1;strokeColor=none;fillColor=none;align=center;verticalAlign=middle;whiteSpace=wrap;rounded=0;" parent="1" vertex="1">
          <mxGeometry x="524" y="715" width="60" height="30" as="geometry" />
        </mxCell>
        <mxCell id="ykypRSLt11gy8VuxgGZR-68" value="Chevrolet Malibu&lt;span style=&quot;white-space: pre;&quot;&gt;&#x9;&lt;/span&gt;" style="text;html=1;strokeColor=none;fillColor=none;align=center;verticalAlign=middle;whiteSpace=wrap;rounded=0;" parent="1" vertex="1">
          <mxGeometry x="599" y="715" width="60" height="30" as="geometry" />
        </mxCell>
        <mxCell id="ykypRSLt11gy8VuxgGZR-69" value="Tesla Model 3" style="text;html=1;strokeColor=none;fillColor=none;align=center;verticalAlign=middle;whiteSpace=wrap;rounded=0;" parent="1" vertex="1">
          <mxGeometry x="668" y="715" width="60" height="30" as="geometry" />
        </mxCell>
        <mxCell id="ykypRSLt11gy8VuxgGZR-70" value="Hyundai Accent" style="text;html=1;strokeColor=none;fillColor=none;align=center;verticalAlign=middle;whiteSpace=wrap;rounded=0;" parent="1" vertex="1">
          <mxGeometry x="741" y="715" width="60" height="30" as="geometry" />
        </mxCell>
        <mxCell id="ykypRSLt11gy8VuxgGZR-71" value="Toyota Camry" style="text;html=1;strokeColor=none;fillColor=none;align=center;verticalAlign=middle;whiteSpace=wrap;rounded=0;" parent="1" vertex="1">
          <mxGeometry x="815" y="715" width="60" height="30" as="geometry" />
        </mxCell>
        <mxCell id="ykypRSLt11gy8VuxgGZR-72" value="Nissan Versa" style="text;html=1;strokeColor=none;fillColor=none;align=center;verticalAlign=middle;whiteSpace=wrap;rounded=0;" parent="1" vertex="1">
          <mxGeometry x="897" y="715" width="60" height="30" as="geometry" />
        </mxCell>
        <mxCell id="ykypRSLt11gy8VuxgGZR-73" value="Honda Civic" style="text;html=1;strokeColor=none;fillColor=none;align=center;verticalAlign=middle;whiteSpace=wrap;rounded=0;" parent="1" vertex="1">
          <mxGeometry x="988" y="715" width="60" height="30" as="geometry" />
        </mxCell>
        <mxCell id="ykypRSLt11gy8VuxgGZR-89" style="edgeStyle=orthogonalEdgeStyle;rounded=0;orthogonalLoop=1;jettySize=auto;html=1;entryX=0.598;entryY=-0.017;entryDx=0;entryDy=0;entryPerimeter=0;" parent="1" source="ykypRSLt11gy8VuxgGZR-13" target="ykypRSLt11gy8VuxgGZR-7" edge="1">
          <mxGeometry relative="1" as="geometry" />
        </mxCell>
        <mxCell id="ykypRSLt11gy8VuxgGZR-90" style="edgeStyle=orthogonalEdgeStyle;rounded=0;orthogonalLoop=1;jettySize=auto;html=1;entryX=0.5;entryY=0;entryDx=0;entryDy=0;" parent="1" source="ykypRSLt11gy8VuxgGZR-13" target="ykypRSLt11gy8VuxgGZR-9" edge="1">
          <mxGeometry relative="1" as="geometry" />
        </mxCell>
        <mxCell id="ykypRSLt11gy8VuxgGZR-91" style="edgeStyle=orthogonalEdgeStyle;rounded=0;orthogonalLoop=1;jettySize=auto;html=1;exitX=0.5;exitY=1;exitDx=0;exitDy=0;entryX=0.5;entryY=0;entryDx=0;entryDy=0;" parent="1" source="ykypRSLt11gy8VuxgGZR-6" target="ykypRSLt11gy8VuxgGZR-8" edge="1">
          <mxGeometry relative="1" as="geometry" />
        </mxCell>
        <mxCell id="ykypRSLt11gy8VuxgGZR-92" style="edgeStyle=orthogonalEdgeStyle;rounded=0;orthogonalLoop=1;jettySize=auto;html=1;entryX=0.5;entryY=0;entryDx=0;entryDy=0;" parent="1" source="ykypRSLt11gy8VuxgGZR-7" target="ykypRSLt11gy8VuxgGZR-31" edge="1">
          <mxGeometry relative="1" as="geometry" />
        </mxCell>
        <mxCell id="ykypRSLt11gy8VuxgGZR-94" style="edgeStyle=orthogonalEdgeStyle;rounded=0;orthogonalLoop=1;jettySize=auto;html=1;entryX=0.5;entryY=0;entryDx=0;entryDy=0;" parent="1" source="ykypRSLt11gy8VuxgGZR-14" target="ykypRSLt11gy8VuxgGZR-29" edge="1">
          <mxGeometry relative="1" as="geometry" />
        </mxCell>
        <mxCell id="ykypRSLt11gy8VuxgGZR-95" style="edgeStyle=orthogonalEdgeStyle;rounded=0;orthogonalLoop=1;jettySize=auto;html=1;entryX=0.75;entryY=0;entryDx=0;entryDy=0;" parent="1" source="ykypRSLt11gy8VuxgGZR-14" target="ykypRSLt11gy8VuxgGZR-32" edge="1">
          <mxGeometry relative="1" as="geometry" />
        </mxCell>
        <mxCell id="ykypRSLt11gy8VuxgGZR-96" style="edgeStyle=orthogonalEdgeStyle;rounded=0;orthogonalLoop=1;jettySize=auto;html=1;entryX=0.5;entryY=0;entryDx=0;entryDy=0;" parent="1" source="ykypRSLt11gy8VuxgGZR-9" target="ykypRSLt11gy8VuxgGZR-27" edge="1">
          <mxGeometry relative="1" as="geometry" />
        </mxCell>
        <mxCell id="ZB8j7G5mZXxHl53fdAYM-1" style="edgeStyle=orthogonalEdgeStyle;rounded=0;orthogonalLoop=1;jettySize=auto;html=1;exitX=0.5;exitY=1;exitDx=0;exitDy=0;entryX=0.5;entryY=0;entryDx=0;entryDy=0;" edge="1" parent="1" source="ykypRSLt11gy8VuxgGZR-9" target="ykypRSLt11gy8VuxgGZR-30">
          <mxGeometry relative="1" as="geometry" />
        </mxCell>
        <mxCell id="ZB8j7G5mZXxHl53fdAYM-2" style="edgeStyle=orthogonalEdgeStyle;rounded=0;orthogonalLoop=1;jettySize=auto;html=1;exitX=0.5;exitY=1;exitDx=0;exitDy=0;entryX=0.5;entryY=0;entryDx=0;entryDy=0;" edge="1" parent="1" source="ykypRSLt11gy8VuxgGZR-7" target="ykypRSLt11gy8VuxgGZR-28">
          <mxGeometry relative="1" as="geometry" />
        </mxCell>
      </root>
    </mxGraphModel>
  </diagram>
</mxfile>
